<svg xmlns="http://www.w3.org/2000/svg" xmlns:xlink="http://www.w3.org/1999/xlink" width="500" zoomAndPan="magnify" viewBox="0 0 375 187.499995" height="250" preserveAspectRatio="xMidYMid meet" version="1.0"><defs><g/></defs><g fill="#ffffff" fill-opacity="1"><g transform="translate(4.764643, 130.526919)"><g><path d="M 11.53125 0 L 11.53125 -0.953125 L 14.3125 -0.953125 C 16.289062 -0.953125 17.613281 -1.414062 18.28125 -2.34375 C 18.957031 -3.28125 19.296875 -5.09375 19.296875 -7.78125 L 19.296875 -67.609375 L 14.984375 -67.609375 C 11.773438 -67.609375 9.257812 -67.253906 7.4375 -66.546875 C 5.613281 -65.847656 4.285156 -64.632812 3.453125 -62.90625 C 2.617188 -61.175781 2.109375 -58.804688 1.921875 -55.796875 L 1.625 -51 L 0.671875 -51 L 1.34375 -68.5625 L 50.125 -68.5625 L 50.796875 -51 L 49.84375 -51 L 49.546875 -55.796875 C 49.359375 -58.804688 48.847656 -61.175781 48.015625 -62.90625 C 47.179688 -64.632812 45.851562 -65.847656 44.03125 -66.546875 C 42.207031 -67.253906 39.691406 -67.609375 36.484375 -67.609375 L 32.265625 -67.609375 L 32.265625 -7.78125 C 32.265625 -5.09375 32.582031 -3.28125 33.21875 -2.34375 C 33.863281 -1.414062 35.210938 -0.953125 37.265625 -0.953125 L 39.953125 -0.953125 L 39.953125 0 Z M 11.53125 0 "/></g></g></g><g fill="#ffffff" fill-opacity="1"><g transform="translate(56.234164, 130.526919)"><g><path d="M 1.625 0 L 1.625 -0.953125 L 2.015625 -0.953125 C 4.253906 -0.953125 5.757812 -1.398438 6.53125 -2.296875 C 7.300781 -3.203125 7.6875 -5 7.6875 -7.6875 L 7.6875 -65.59375 C 7.6875 -68.15625 7.332031 -69.863281 6.625 -70.71875 C 5.914062 -71.582031 4.539062 -72.015625 2.5 -72.015625 L 1.25 -72.015625 L 1.25 -72.984375 L 20.265625 -72.984375 L 20.265625 -51.09375 C 20.265625 -49.875 20.25 -48.703125 20.21875 -47.578125 C 20.1875 -46.460938 20.140625 -45.070312 20.078125 -43.40625 L 20.265625 -43.40625 C 20.960938 -46.21875 22.300781 -48.457031 24.28125 -50.125 C 26.269531 -51.789062 28.929688 -52.625 32.265625 -52.625 C 36.429688 -52.625 39.597656 -51.164062 41.765625 -48.25 C 43.941406 -45.34375 45.03125 -40.75 45.03125 -34.46875 L 45.03125 -7.78125 C 45.03125 -5.09375 45.367188 -3.28125 46.046875 -2.34375 C 46.722656 -1.414062 48.050781 -0.953125 50.03125 -0.953125 L 50.421875 -0.953125 L 50.421875 0 L 32.65625 0 L 32.65625 -35.921875 C 32.65625 -40.910156 32.269531 -44.425781 31.5 -46.46875 C 30.726562 -48.519531 29.316406 -49.546875 27.265625 -49.546875 C 25.085938 -49.546875 23.359375 -48.203125 22.078125 -45.515625 C 20.804688 -42.828125 20.171875 -38.765625 20.171875 -33.328125 L 20.171875 -7.484375 C 20.171875 -4.929688 20.519531 -3.203125 21.21875 -2.296875 C 21.925781 -1.398438 23.367188 -0.953125 25.546875 -0.953125 L 25.921875 -0.953125 L 25.921875 0 Z M 1.625 0 "/></g></g></g><g fill="#ffffff" fill-opacity="1"><g transform="translate(108.759963, 130.526919)"><g><path d="M 13.4375 -60.78125 C 11.78125 -60.78125 10.375 -61.273438 9.21875 -62.265625 C 8.0625 -63.265625 7.484375 -64.851562 7.484375 -67.03125 C 7.484375 -69.207031 8.0625 -70.789062 9.21875 -71.78125 C 10.375 -72.769531 11.78125 -73.265625 13.4375 -73.265625 C 15.101562 -73.265625 16.546875 -72.769531 17.765625 -71.78125 C 18.984375 -70.789062 19.59375 -69.207031 19.59375 -67.03125 C 19.59375 -64.851562 18.984375 -63.265625 17.765625 -62.265625 C 16.546875 -61.273438 15.101562 -60.78125 13.4375 -60.78125 Z M 1.25 0 L 1.25 -0.953125 L 2.3125 -0.953125 C 4.164062 -0.953125 5.523438 -1.414062 6.390625 -2.34375 C 7.253906 -3.28125 7.6875 -5.1875 7.6875 -8.0625 L 7.6875 -43.796875 C 7.6875 -46.546875 7.253906 -48.351562 6.390625 -49.21875 C 5.523438 -50.082031 4.195312 -50.515625 2.40625 -50.515625 L 1.15625 -50.515625 L 1.15625 -51.46875 L 20.078125 -51.46875 L 20.078125 -7.875 C 20.078125 -5.0625 20.503906 -3.203125 21.359375 -2.296875 C 22.222656 -1.398438 23.585938 -0.953125 25.453125 -0.953125 L 26.40625 -0.953125 L 26.40625 0 Z M 1.25 0 "/></g></g></g><g fill="#ffffff" fill-opacity="1"><g transform="translate(136.607271, 130.526919)"><g><path d="M 19.96875 0.953125 C 16 0.953125 12.925781 -0.148438 10.75 -2.359375 C 8.570312 -4.566406 7.484375 -8.484375 7.484375 -14.109375 L 7.484375 -50.515625 L 1.734375 -50.515625 L 1.734375 -51.46875 C 4.160156 -51.46875 6.269531 -51.675781 8.0625 -52.09375 C 9.851562 -52.507812 11.457031 -53.132812 12.875 -53.96875 C 16.070312 -55.957031 18.148438 -59.0625 19.109375 -63.28125 L 20.078125 -63.28125 L 20.078125 -51.46875 L 29.96875 -51.46875 L 29.96875 -50.515625 L 20.078125 -50.515625 L 20.078125 -10.375 C 20.078125 -7.039062 20.503906 -4.6875 21.359375 -3.3125 C 22.222656 -1.9375 23.617188 -1.25 25.546875 -1.25 C 26.242188 -1.25 27.023438 -1.3125 27.890625 -1.4375 C 28.753906 -1.5625 29.703125 -1.785156 30.734375 -2.109375 L 30.734375 -1.15625 C 29.835938 -0.707031 28.457031 -0.242188 26.59375 0.234375 C 24.738281 0.710938 22.53125 0.953125 19.96875 0.953125 Z M 19.96875 0.953125 "/></g></g></g><g fill="#ffffff" fill-opacity="1"><g transform="translate(168.871744, 130.526919)"><g><path d="M 1.625 0 L 1.625 -0.953125 L 2.015625 -0.953125 C 4.253906 -0.953125 5.757812 -1.398438 6.53125 -2.296875 C 7.300781 -3.203125 7.6875 -5 7.6875 -7.6875 L 7.6875 -65.59375 C 7.6875 -68.15625 7.332031 -69.863281 6.625 -70.71875 C 5.914062 -71.582031 4.539062 -72.015625 2.5 -72.015625 L 1.25 -72.015625 L 1.25 -72.984375 L 20.265625 -72.984375 L 20.265625 -51.09375 C 20.265625 -49.875 20.25 -48.703125 20.21875 -47.578125 C 20.1875 -46.460938 20.140625 -45.070312 20.078125 -43.40625 L 20.265625 -43.40625 C 20.960938 -46.21875 22.300781 -48.457031 24.28125 -50.125 C 26.269531 -51.789062 28.929688 -52.625 32.265625 -52.625 C 36.429688 -52.625 39.597656 -51.164062 41.765625 -48.25 C 43.941406 -45.34375 45.03125 -40.75 45.03125 -34.46875 L 45.03125 -7.78125 C 45.03125 -5.09375 45.367188 -3.28125 46.046875 -2.34375 C 46.722656 -1.414062 48.050781 -0.953125 50.03125 -0.953125 L 50.421875 -0.953125 L 50.421875 0 L 32.65625 0 L 32.65625 -35.921875 C 32.65625 -40.910156 32.269531 -44.425781 31.5 -46.46875 C 30.726562 -48.519531 29.316406 -49.546875 27.265625 -49.546875 C 25.085938 -49.546875 23.359375 -48.203125 22.078125 -45.515625 C 20.804688 -42.828125 20.171875 -38.765625 20.171875 -33.328125 L 20.171875 -7.484375 C 20.171875 -4.929688 20.519531 -3.203125 21.21875 -2.296875 C 21.925781 -1.398438 23.367188 -0.953125 25.546875 -0.953125 L 25.921875 -0.953125 L 25.921875 0 Z M 1.625 0 "/></g></g></g><g fill="#ffffff" fill-opacity="1"><g transform="translate(221.397542, 130.526919)"><g><path d="M 13.4375 -60.78125 C 11.78125 -60.78125 10.375 -61.273438 9.21875 -62.265625 C 8.0625 -63.265625 7.484375 -64.851562 7.484375 -67.03125 C 7.484375 -69.207031 8.0625 -70.789062 9.21875 -71.78125 C 10.375 -72.769531 11.78125 -73.265625 13.4375 -73.265625 C 15.101562 -73.265625 16.546875 -72.769531 17.765625 -71.78125 C 18.984375 -70.789062 19.59375 -69.207031 19.59375 -67.03125 C 19.59375 -64.851562 18.984375 -63.265625 17.765625 -62.265625 C 16.546875 -61.273438 15.101562 -60.78125 13.4375 -60.78125 Z M 1.25 0 L 1.25 -0.953125 L 2.3125 -0.953125 C 4.164062 -0.953125 5.523438 -1.414062 6.390625 -2.34375 C 7.253906 -3.28125 7.6875 -5.1875 7.6875 -8.0625 L 7.6875 -43.796875 C 7.6875 -46.546875 7.253906 -48.351562 6.390625 -49.21875 C 5.523438 -50.082031 4.195312 -50.515625 2.40625 -50.515625 L 1.15625 -50.515625 L 1.15625 -51.46875 L 20.078125 -51.46875 L 20.078125 -7.875 C 20.078125 -5.0625 20.503906 -3.203125 21.359375 -2.296875 C 22.222656 -1.398438 23.585938 -0.953125 25.453125 -0.953125 L 26.40625 -0.953125 L 26.40625 0 Z M 1.25 0 "/></g></g></g><g fill="#ffffff" fill-opacity="1"><g transform="translate(249.244851, 130.526919)"><g><path d="M 1.4375 0 L 1.4375 -0.953125 L 1.625 -0.953125 C 4 -0.953125 5.585938 -1.382812 6.390625 -2.25 C 7.191406 -3.113281 7.59375 -4.859375 7.59375 -7.484375 L 7.59375 -44.265625 C 7.59375 -46.765625 7.222656 -48.429688 6.484375 -49.265625 C 5.742188 -50.097656 4.253906 -50.515625 2.015625 -50.515625 L 1.828125 -50.515625 L 1.828125 -51.46875 L 20.078125 -51.46875 L 20.078125 -42.15625 L 20.265625 -42.15625 C 21.097656 -45.425781 22.410156 -47.972656 24.203125 -49.796875 C 25.992188 -51.617188 28.425781 -52.53125 31.5 -52.53125 C 34.3125 -52.53125 36.46875 -51.804688 37.96875 -50.359375 C 39.476562 -48.921875 40.234375 -46.957031 40.234375 -44.46875 C 40.234375 -39.21875 37.035156 -36.59375 30.640625 -36.59375 C 30.640625 -41.257812 30.363281 -44.472656 29.8125 -46.234375 C 29.269531 -47.992188 28.195312 -48.875 26.59375 -48.875 C 24.738281 -48.875 23.203125 -47.398438 21.984375 -44.453125 C 20.773438 -41.515625 20.171875 -36.910156 20.171875 -30.640625 L 20.171875 -7.484375 C 20.171875 -4.859375 20.617188 -3.113281 21.515625 -2.25 C 22.410156 -1.382812 24.203125 -0.953125 26.890625 -0.953125 L 27.84375 -0.953125 L 27.84375 0 Z M 1.4375 0 "/></g></g></g><g fill="#ffffff" fill-opacity="1"><g transform="translate(290.631721, 130.526919)"><g><path d="M 15.65625 0.953125 C 12.257812 0.953125 9.375 -0.289062 7 -2.78125 C 4.632812 -5.28125 3.453125 -8.960938 3.453125 -13.828125 C 3.453125 -23.171875 9.28125 -28.066406 20.9375 -28.515625 L 27.375 -28.8125 L 27.375 -39.75 C 27.375 -44.238281 26.988281 -47.347656 26.21875 -49.078125 C 25.445312 -50.804688 24.101562 -51.671875 22.1875 -51.671875 C 20.195312 -51.671875 18.800781 -50.582031 18 -48.40625 C 17.207031 -46.226562 16.8125 -42.320312 16.8125 -36.6875 C 10.082031 -36.6875 6.71875 -38.703125 6.71875 -42.734375 C 6.71875 -44.910156 7.453125 -46.734375 8.921875 -48.203125 C 10.398438 -49.679688 12.382812 -50.785156 14.875 -51.515625 C 17.375 -52.253906 20.128906 -52.625 23.140625 -52.625 C 28.648438 -52.625 32.8125 -51.390625 35.625 -48.921875 C 38.445312 -46.460938 39.859375 -42.222656 39.859375 -36.203125 L 39.859375 -7.96875 C 39.859375 -5.15625 40.191406 -3.28125 40.859375 -2.34375 C 41.535156 -1.414062 42.769531 -0.953125 44.5625 -0.953125 L 44.84375 -0.953125 L 44.84375 0 L 27.46875 0 L 27.46875 -8.15625 L 27.265625 -8.15625 C 26.367188 -4.894531 24.910156 -2.5625 22.890625 -1.15625 C 20.878906 0.25 18.46875 0.953125 15.65625 0.953125 Z M 20.546875 -1.828125 C 21.890625 -1.828125 23.070312 -2.484375 24.09375 -3.796875 C 25.125 -5.109375 25.925781 -6.851562 26.5 -9.03125 C 27.082031 -11.207031 27.375 -13.578125 27.375 -16.140625 L 27.375 -27.84375 L 24.109375 -27.65625 C 21.160156 -27.46875 19.09375 -26.332031 17.90625 -24.25 C 16.726562 -22.164062 16.140625 -18.851562 16.140625 -14.3125 C 16.140625 -9.445312 16.488281 -6.148438 17.1875 -4.421875 C 17.894531 -2.691406 19.015625 -1.828125 20.546875 -1.828125 Z M 20.546875 -1.828125 "/></g></g></g><g fill="#ffffff" fill-opacity="1"><g transform="translate(337.972136, 130.526919)"><g><path d="M 19.96875 0.953125 C 16 0.953125 12.925781 -0.148438 10.75 -2.359375 C 8.570312 -4.566406 7.484375 -8.484375 7.484375 -14.109375 L 7.484375 -50.515625 L 1.734375 -50.515625 L 1.734375 -51.46875 C 4.160156 -51.46875 6.269531 -51.675781 8.0625 -52.09375 C 9.851562 -52.507812 11.457031 -53.132812 12.875 -53.96875 C 16.070312 -55.957031 18.148438 -59.0625 19.109375 -63.28125 L 20.078125 -63.28125 L 20.078125 -51.46875 L 29.96875 -51.46875 L 29.96875 -50.515625 L 20.078125 -50.515625 L 20.078125 -10.375 C 20.078125 -7.039062 20.503906 -4.6875 21.359375 -3.3125 C 22.222656 -1.9375 23.617188 -1.25 25.546875 -1.25 C 26.242188 -1.25 27.023438 -1.3125 27.890625 -1.4375 C 28.753906 -1.5625 29.703125 -1.785156 30.734375 -2.109375 L 30.734375 -1.15625 C 29.835938 -0.707031 28.457031 -0.242188 26.59375 0.234375 C 24.738281 0.710938 22.53125 0.953125 19.96875 0.953125 Z M 19.96875 0.953125 "/></g></g></g></svg>